<svg width="1081" height="344" viewBox="0 0 1081 344" fill="none" xmlns="http://www.w3.org/2000/svg">
  <rect x="72" y="72" width="200" height="200" rx="20" fill="#000"/>
  <g fill="#fff">
    <path d="M140 124V204.5L108 236.5L108 124H140Z" />
    <path d="M245.314 222.687L222.687 245.314L172.215 194.842L194.842 172.215L245.314 222.687Z" />
    <path d="M189.943 108C223.798 108 240.752 148.931 216.813 172.87L183.528 206.155L160.9 183.528L194.187 150.242C197.966 146.462 195.289 140 189.943 140H108V108H189.943Z" />
  </g>
  <path opacity="0.5" d="M108 140H140V204.5L108 236.5V140Z" fill="url(#paint0_linear_2473_1671)" />
  <path opacity="0.5" d="M245.313 222.687L222.687 245.313L183.528 206.155L206.155 183.528L245.313 222.687Z" fill="url(#paint1_linear_2473_1671)" />
  <g fill="#000">
    <path d="M983 134C983 123 989.5 119 999.5 119C1001.49 119 1004.33 119.09 1006.49 119.557L1009 96.5C1005.76 95.4505 999.961 95 996 95C971.5 95 955.899 108.085 955.899 133.397V140H943V162.997L956 163V234H983V163L1001.94 162.997L1004.35 140H983V134Z" />
    <path d="M931 234.074H904V227.5C897.188 232.849 888.5 236 877 236C856.5 236 845 225 845 207.5C845 188.5 859.475 178.655 882.04 178.655C890.342 178.655 899.104 180.36 904 182.5V177.5C904 166 898 162 883 162C873 162 860.5 165 854 169L853 145C861.941 140.721 874.163 138 886.936 138C915.46 138 931 149.555 931 175.659V234.074ZM904 212V199C899.955 197.074 894 195.5 888.5 195.5C878 195.5 872 199 872 207C872 214.5 876.931 217.812 886.297 217.812C892.896 217.812 899.955 215.21 904 212Z" />
    <path d="M837 139L836 165C834.065 163.931 829.5 163.5 825.5 163.5C818 163.5 809.806 166.296 804 171L804 234H777V140L804 138L804 150.5C812.387 141.948 821 138 830.5 138C832.5 138 835.495 138.359 837 139Z" />
    <path d="M763.988 138V159H749.49C752.272 162.638 753.989 167.5 753.989 173C753.989 192.5 739.751 204.93 716 206L705.995 211C710.917 210.144 719.852 209.726 723.917 209.726C750.664 209.726 765 219.74 765 239C765 258.046 750.158 272 715.494 272C695.594 272 677.485 267.92 667 261.5L669 238C677.773 244.42 698.378 250 716.994 250C734.968 250 739.991 246 739.991 239.5C739.991 233 734.492 230.5 716.994 230.5C706.495 230.5 693.557 231.574 684.998 233.5V215L699.996 205C681.38 201.79 671 188.55 671 172.5C671 152.17 687.114 139.284 712.576 139.284C718.568 139.284 724.293 140.502 729 142L763.988 138ZM728.992 173C728.992 164.5 722.493 158 712.494 158C702.496 158 695.996 164.5 695.996 173C695.996 181.5 702.496 188 712.494 188C722.493 188 728.992 181.5 728.992 173Z" />
    <path d="M657 234H630V177.5C630 166.5 624 162 614.5 162C608 162 600.79 164.865 595 168.5V234H568V140L595 138V148C604.007 141.158 613.68 138 624.402 138C643.918 138 657 148.477 657 171.996V234Z" />
    <path d="M548 138V234L521 234.089V226C512.007 232.796 503 236 492.5 236C473.016 236 460 225.593 460 202.23V140L487 138V197C487 208.044 493.079 212 502.5 212C508.709 212 515.219 209.398 521 206V140L548 138Z" />
    <path d="M441 150.5C441 167 430.688 179.697 416.526 184.576L450 234H418L389 191H372V234H344V108H388.5C422 108 441 123 441 150.5ZM413 150.5C413 137 403 131 387.5 131H372V169H387.5C403 169 413 164 413 150.5Z" />
  </g>
  <defs>
    <linearGradient id="paint0_linear_2473_1671" x1="124.5" y1="124" x2="113.53" y2="143" gradientUnits="userSpaceOnUse">
      <stop />
      <stop offset="1" stop-opacity="0" />
    </linearGradient>
    <linearGradient id="paint1_linear_2473_1671" x1="188.94" y1="202.45" x2="183.995" y2="183.995" gradientUnits="userSpaceOnUse">
      <stop stop-opacity="0" />
      <stop offset="1" />
    </linearGradient>
  </defs>
</svg>

